<svg xmlns="http://www.w3.org/2000/svg" viewBox="0 0 594.39 137.27"><defs><style>.cls-1{fill:#49dc0b;}.cls-2{fill:#7f7e7f;}.cls-3{fill:#4be30b;}.cls-4{fill:#48d90b;}.cls-5{fill:#47d80b;}.cls-6{fill:#4ce60c;}.cls-7{fill:#4ce50b;}.cls-8{fill:#4eea0c;}.cls-9{fill:#838383;}.cls-10{fill:#4de90c;}.cls-11{fill:#4de80c;}.cls-12{fill:#45d30a;}.cls-13{fill:#4eeb0c;}.cls-14{fill:#4ce60b;}.cls-15{fill:#4eec0c;}.cls-16{fill:#44ce0a;}.cls-17{fill:#828282;}.cls-18{fill:#236c05;}.cls-19{fill:#4dea0c;}.cls-20{fill:#47e105;}.cls-21{fill:#47e006;}.cls-22{fill:#827985;}.cls-23{fill:#848484;}.cls-24{fill:#4bd90f;}.cls-25{fill:#44e600;}.cls-26{fill:#898989;}.cls-27{fill:#44e501;}.cls-28{fill:#827886;}.cls-29{fill:#4deb0c;}.cls-30{fill:#081801;}.cls-31{fill:#7d807c;}.cls-32{fill:#45e204;}.cls-33{fill:#47df07;}.cls-34{fill:#62b23f;}.cls-35{fill:#7b787c;}.cls-36{fill:#7a8875;}.cls-37{fill:#7a7b7a;}.cls-38{fill:#747a71;}.cls-39{fill:#fdfdfd;}.cls-40{fill:#f5f5f5;}.cls-41{fill:#d9e2d6;}.cls-42{fill:#020202;}.cls-43{fill:#030303;}.cls-44{fill:#0c0d0c;}.cls-45{fill:#090909;}.cls-46{fill:#0b0b0b;}.cls-47{fill:#1c1c1c;}.cls-48{fill:#181818;}.cls-49{fill:#cacaca;}.cls-50{fill:#e7e7e7;}.cls-51{fill:#0b0d0b;}.cls-52{fill:#e0e3e8;}.cls-53{fill:#0e0e0e;}.cls-54{fill:#1f1f1f;}.cls-55{fill:#aeb6c3;}.cls-56{fill:#1e1e1e;}.cls-57{fill:#1e3254;}.cls-58{fill:#3a3a3a;}.cls-59{fill:#eee;}.cls-60{fill:#2a2a2a;}.cls-61{fill:#f9f8f9;}.cls-62{fill:#060606;}.cls-63{fill:#070707;}.cls-64{fill:#0d0d0d;}.cls-65{fill:#383838;}.cls-66{fill:#32589b;}.cls-67{fill:#fbfbfb;}.cls-68{fill:#0b1305;}.cls-69{fill:#050505;}.cls-70{fill:#050605;}.cls-71{fill:#f3f3f2;}.cls-72{fill:#121212;}.cls-73{fill:#0a0a09;}.cls-74{fill:#0a0b0a;}.cls-75{fill:#d6dad1;}.cls-76{fill:#f1f3f0;}.cls-77{fill:#c4c4c4;}.cls-78{fill:#8f8f8f;}.cls-79{fill:#eceeeb;}.cls-80{fill:#7d7e7d;}.cls-81{fill:#272827;}.cls-82{fill:#0c0f0a;}.cls-83{fill:#232a20;}.cls-84{fill:gray;}.cls-85{fill:#eaece9;}.cls-86{fill:#d0dcef;}.cls-87{fill:#d0d0d0;}.cls-88{fill:#625e63;}.cls-89{fill:#385a8d;}.cls-90{fill:#d3d6db;}.cls-91{fill:#d8e2d4;}.cls-92{fill:#e1e1e0;}.cls-93{fill:#11180f;}.cls-94{fill:#e6e7e6;}.cls-95{fill:#020c21;}.cls-96{fill:#292829;}.cls-97{fill:#2a3824;}.cls-98{fill:#cbdbc3;}.cls-99{fill:#252425;}.cls-100{fill:#dadfd7;}.cls-101{fill:#f4fdf1;}.cls-102{fill:#4c6045;}.cls-103{fill:#9be87c;}.cls-104{fill:#233c19;}.cls-105{fill:#b5dba5;}.cls-106{fill:#f1f1f1;}.cls-107{fill:#e8e8e8;}.cls-108{fill:#d7e0d4;}.cls-109{fill:#d7d7d7;}.cls-110{fill:#f8f8f8;}.cls-111{fill:#0c0c0c;}.cls-112{fill:#232323;}.cls-113{fill:#353535;}.cls-114{fill:#e2e2e2;}.cls-115{fill:#080808;}.cls-116{fill:#868686;}.cls-117{fill:#0a0a0a;}.cls-118{fill:#f7f8f8;}.cls-119{fill:#191919;}.cls-120{fill:#dbdbdb;}.cls-121{fill:#5f5f5f;}.cls-122{fill:#343434;}.cls-123{fill:#2f2f2f;}.cls-124{fill:#1d1d1d;}.cls-125{fill:#010101;}.cls-126{fill:#212121;}.cls-127{fill:#111;}.cls-128{fill:#355da4;}.cls-129{fill:#f9f9f9;}.cls-130{fill:#233f70;}.cls-131{fill:#13223d;}.cls-132{fill:#e3e3e3;}.cls-133{fill:#dedede;}.cls-134{fill:#1b2c4b;}.cls-135{fill:#ededed;}</style></defs><g id="Layer_2" data-name="Layer 2"><g id="Layer_1-2" data-name="Layer 1"><path class="cls-1" d="M320.28,118.16c0,2.13-1.29,3.1-3.2,3.54-6.56,1.51-10.4-.23-13.55-6.17q-8.11-15.28-16.17-30.6c-.78-1.47-1.37-3-2.05-4.56-1.46.73-.53,1.9-.53,2.9v6.21a15.08,15.08,0,0,0-.19,4.24q0,11.88,0,23.77a6.25,6.25,0,0,0,.18,2.58c0,1.17-.86,1.45-1.72,1.63a17.7,17.7,0,0,1-6.41,0c-1.75-.29-1.91-1.55-1.91-3q0-16.83,0-33.65c0-4.69,0-9.38,0-14.07,0-3.11,1.16-4.2,4.33-4.44a18.16,18.16,0,0,0,5.7,0c3.58-.32,5.85,1.42,7.43,4.47C298,82.2,304.3,93.1,309.64,104.49c.15.33.19.79.65.85v-9c0-8.92,0-17.83,0-26.75,0-2.1.7-3.18,2.87-3.08a15.62,15.62,0,0,0,5.24,0c.91.07,1.79.19,1.91,1.37a3.42,3.42,0,0,0-.21,1.87q0,23.23,0,46.49A3.39,3.39,0,0,0,320.28,118.16Z"/><path class="cls-1" d="M376.87,78c-.4,2.4-1.81,1.46-3,.82a30.29,30.29,0,0,0-12-3.84c-11.45-1.09-19.28,5.09-20.3,16.5-.62,7,.41,13.85,6.57,18.51,4.84,3.66,10.37,4.19,16.14,2.37a2,2,0,0,0,1.59-2.28q-.12-4.78,0-9.56c0-1.27-.45-1.66-1.67-1.63-2.55.06-5.11,0-7.67,0-1.68,0-2.7-.78-2.62-2.38.1-2.06-1.21-4.51,1.37-6a178.67,178.67,0,0,0,18.66,0,2.46,2.46,0,0,1,2.88,2.37c-.51,2.19-.23,4.41-.21,6.6,0,5.93-.28,11.86.18,17.78a2.62,2.62,0,0,1-2,2.41c-10.57,3.6-21.18,4.81-31.63-.27-7.21-3.51-11.14-9.65-12.6-17.32s-1-15.43,2.74-22.56c5-9.49,13.53-13.31,23.8-13.88A35,35,0,0,1,372.6,68c1.77.74,3.87,1.32,4.26,3.73C376.85,73.84,376.83,75.9,376.87,78Z"/><path class="cls-1" d="M578.74,117.22a2.61,2.61,0,0,1-2,2.4c-10.58,3.6-21.2,4.82-31.65-.31-7.36-3.61-11.28-9.94-12.66-17.83-1.27-7.29-.85-14.48,2.48-21.25,4.89-9.94,13.49-14,24-14.64a34.19,34.19,0,0,1,16.36,2.79,7.79,7.79,0,0,1,3.48,10.13c-.77,1.51-1.8.92-2.8.35a32.25,32.25,0,0,0-12.67-4c-9.85-1-17.7,4.53-19.42,14.3-1.13,6.35-.63,12.59,3.42,18s12.86,7.72,19.05,5.11a2,2,0,0,0,1.48-2.11c-.07-3.27-.05-6.54,0-9.81,0-1.14-.43-1.54-1.54-1.52-2.56,0-5.12,0-7.67,0-1.84.06-2.79-.89-2.75-2.54,0-2-1.05-4.35,1.33-5.85a181.27,181.27,0,0,0,18.65,0,2.38,2.38,0,0,1,2.84,1.91C578.79,100.64,578.69,108.93,578.74,117.22Z"/><path class="cls-1" d="M227.67,88.43a3.59,3.59,0,0,0,.46-2.52c0-5.1,0-10.2,0-15.31,0-3.79,0-3.72,3.71-4.32a20.19,20.19,0,0,1,5.71.26c.79.1,1.59.39,1.66,1.41A3.55,3.55,0,0,0,239,69.6q0,24.42,0,48.83a3.17,3.17,0,0,0,.19,1.64c-.73,2.53-2.92,1.79-4.56,1.83-2.14.06-4.58.72-6.26-1.28-.42-.49-.27-1.52-.27-2.31q0-9.19,0-18.39c0-1.09.07-2-1.54-2-6.46.11-12.91.13-19.37.19-.1.12-.28.24-.28.37,0,7.36-.26,14.73.15,22.09-.66,1.48-2.09,1.27-3.29,1.36-7.33.56-7.71.19-7.71-7V70.56c0-3.78,0-3.81,3.74-4.22,2.5-.27,5-.57,7.22,1.15-.34,6.56-.06,13.12-.15,19.69a1.56,1.56,0,0,0,.9,1.54c6.19.07,12.38,0,18.57,0C226.82,88.74,227.34,89,227.67,88.43Z"/><path class="cls-1" d="M528.1,118.44c-1.41-4.32-2.94-8.6-4.44-12.89-4.17-12-8.39-23.91-12.49-35.91-.8-2.31-2.08-3.31-4.54-3.32s-4.92-.1-7.4,0-3.68,1.12-4.46,3.41c-3.11,9.21-6.38,18.37-9.58,27.55-2.41,6.92-4.85,13.84-7.18,20.79-1,3.09-.4,3.85,2.9,3.92,1.44,0,2.87,0,4.31,0a3.28,3.28,0,0,0,3.49-2.63c.84-2.83,1.89-5.59,2.71-8.43a2.14,2.14,0,0,1,2.51-1.86c2.88.11,5.76,0,8.63,0s5.6.09,8.39,0a2.16,2.16,0,0,1,2.53,1.85c.81,2.75,1.88,5.42,2.67,8.18.57,2,1.7,3,3.78,2.89,1.91,0,3.83,0,5.75,0C528.36,121.84,529,121.05,528.1,118.44Zm-19.63-18c-4.06-.1-8.12-.07-12.18,0-1.38,0-1.65-.46-1.23-1.7q3.54-10.48,7-21l.5-.06,2.58,7.6c1.49,4.45,3,8.9,4.48,13.33C510.08,99.86,510.13,100.53,508.47,100.49Z"/><path class="cls-2" d="M123,112.21V65.29a3.66,3.66,0,0,1,.17-1.64,12.57,12.57,0,0,0-4.65-9.56c-3.56-3.18-7.92-3.54-12.37-3.3-2.11.12-3.26-.24-3.2-2.71a23.85,23.85,0,0,0-.81-5.18C99.49,29.79,94.25,18,84,9,75,1,64.52-2,52.69,1.41,43.55,4.08,36.84,10.1,31.54,17.77a67,67,0,0,0-11,29.48c-.59,4.23.31,3.37-3.89,3.52-1.58,0-3.19-.29-4.73.36a8.7,8.7,0,0,0,2.42.32,15.42,15.42,0,0,1-3.25-.23,12.94,12.94,0,0,0-11,12.64q-.21,24.86,0,49.72A12.85,12.85,0,0,0,12,126.37h0a2.18,2.18,0,0,0,1.59.32q48.24,0,96.46,0a13.24,13.24,0,0,0,13.17-12.82A3.66,3.66,0,0,1,123,112.21ZM14.49,126.08q46.38,0,92.75,0h1.33l-.35,0q-47.1,0-94.18,0a6.26,6.26,0,0,0-1.56,0A6.45,6.45,0,0,1,14.49,126.08ZM17.18,51.4h.34l.52,0h-.86Zm63-1.83c.24,1.62-.9,1.17-1.65,1.17-5.67,0-11.34,0-17,0H45c-.91,0-2.07.27-1.82-1.35,1.26-8.14,3.43-15.93,9.27-22.13,5.65-6,12.54-6.08,18.24-.21C76.77,33.31,79,41.25,80.21,49.57Z"/><path class="cls-1" d="M170.23,120.08c-.21,1.53-1.55,1.49-2.57,1.67a27.55,27.55,0,0,1-8.11.07c-2.2-.26-3.13-1.4-3.09-3.68.09-6.29,0-12.59,0-18.89,0-10.61-.05-21.21,0-31.82,0-1.87-.49-2.46-2.4-2.4-4.47.13-8.95,0-13.42.07-2.06.05-3-.93-3.05-2.8s-.09-3.83,0-5.74c0-1,.17-2.1,1.42-2.49q24.45,0,48.89,0c1.25.38,1.32,1.48,1.45,2.48,1,7.63.24,8.52-7.34,8.52-3.11,0-6.21,0-9.32,0-.85,0-1.78-.25-2.46.55-.53.33-.3.85-.3,1.29q0,25.77,0,51.54A2.59,2.59,0,0,0,170.23,120.08Z"/><path class="cls-1" d="M475.64,62.18c0,2.11-1,3-3.1,2.92-3.91-.09-7.82,0-11.72,0s-4,0-4,3.85q0,24.24,0,48.47c0,.93.25,1.91-.32,2.79a1.4,1.4,0,0,1-.27-.89q0-26.49,0-53,0,25.8,0,51.62a7.91,7.91,0,0,0,.15,2.61c-.5,1.2-1.7,1.11-2.65,1.26a28.74,28.74,0,0,1-7.64.06c-2.26-.23-3.23-1.3-3.21-3.76.11-13.06.05-26.13.05-39.19,0-3.9-.07-7.81,0-11.71,0-1.66-.5-2.2-2.18-2.16-4.47.1-8.94-.06-13.41.07-2.4.07-3.37-1-3.45-3.22-.06-1.75-.07-3.51,0-5.25.05-1,.16-2.1,1.37-2.54,16.45,0,32.89-.19,49.33.09a2.19,2.19,0,0,1,1,2.27A14.68,14.68,0,0,0,475.64,62.18Z"/><path class="cls-1" d="M420,80.87c2.48.3,2.13,1.95,1.6,3.54-2.22,6.65-4.49,13.28-6.75,19.91-3.31,9.73-6.69,19.43-9.91,29.18a4.54,4.54,0,0,1-4.22,3.54,25.38,25.38,0,0,1-6,.1c-2.24-.28-2.73-1.16-1.92-3.23,1.37-3.49,2.79-7,4.16-10.43.24-.63.86-1.28.29-2-2.46-3.17-3.19-7.08-4.59-10.7-3.34-8.61-6.55-17.27-9.72-25.94-.52-1.42-1.67-3.3,1.09-3.94,2.71,0,5.41-.07,8.11,0,1.33.35,1.49,1.56,1.85,2.58q3.94,11.13,7.86,22.28c.26.74.57,1.45.88,2.25.81-.5.82-1.24,1-1.87,2.4-7.5,4.76-15,7.17-22.51.34-1.08.36-2.45,1.88-2.75C415.25,80.9,417.64,81,420,80.87Z"/><path class="cls-1" d="M262.26,120.55c-.85,1.57-2.42,1.32-3.78,1.39-7.07.32-7.23.14-7.23-6.78V70.07c0-3.19.12-3.36,3.26-3.68,2.65-.27,5.35-.73,7.71,1.09a3.65,3.65,0,0,0-.17,1.64v49.57A3.49,3.49,0,0,0,262.26,120.55Z"/><path class="cls-3" d="M474.65,54.19c-.7.56-1.53.33-2.31.33H427.59c-.77,0-1.61.26-2.27-.42a4.74,4.74,0,0,1,2.8-.39h43.51A5.25,5.25,0,0,1,474.65,54.19Z"/><path class="cls-3" d="M188,54.07c-.63.71-1.48.45-2.24.45h-44.4c-.77,0-1.61.26-2.25-.45a4,4,0,0,1,2.32-.36h44.25A4,4,0,0,1,188,54.07Z"/><path class="cls-4" d="M594.07,98.57c0,.63.14,1.26.17,1.89,0,1.55.26,3.17-2.16,1.58a2.64,2.64,0,0,0-2.76.16c-1.78,1.31-2.17-.08-1.76-1.15.69-1.82-1.71-3.89.58-5.43a2.69,2.69,0,0,1,.6-.33c1.27-.07,2.58.59,3.83-.13a1.34,1.34,0,0,1,1.41-.87c.77,3.29.69,3.43-2.37,4-.63.11-1.27.15-1.52.87a2.38,2.38,0,0,0,2.46,0C592.89,98.47,593.29,98,594.07,98.57Z"/><path class="cls-4" d="M594.24,107.69a3.39,3.39,0,0,1-3.25,3.68,3.83,3.83,0,0,1-3.9-3.69,3.27,3.27,0,0,1,3.46-3.67C593,104,594.23,105.31,594.24,107.69Z"/><path class="cls-5" d="M594.23,114.6c.07,1.67-.38,2.94-2,3.53a3.6,3.6,0,0,1-4.15-.86,4.07,4.07,0,0,1-.68-4.24c.33-1.06,1.32-.87,2-.63a.87.87,0,0,1,.17,1.55c-.9.6-1.54,1.11-.22,1.75a1.84,1.84,0,0,0,2.65-.78,2.58,2.58,0,0,0,.16-.69c.15-.72-.56-2,1-1.83C594.52,112.57,594,113.88,594.23,114.6Z"/><path class="cls-6" d="M456.38,120.54c-.52-.52-.38-1.18-.38-1.81q0-26,0-52.06a1.29,1.29,0,0,1,.51-1.11v54.62A.28.28,0,0,1,456.38,120.54Z"/><path class="cls-3" d="M170.23,120.08c-.67-.54-.46-1.31-.46-2q0-25.58,0-51.15a12.51,12.51,0,0,1,.13-1.36s.14-.07.2-.06a.82.82,0,0,1,.2.12q0,27,0,54A1.83,1.83,0,0,1,170.23,120.08Z"/><path class="cls-7" d="M262.26,120.55c-.7-.64-.43-1.49-.43-2.25q0-24.27,0-48.54c0-.77-.26-1.61.39-2.28a14.71,14.71,0,0,1,.24,1.87q0,24.78,0,49.56A12.88,12.88,0,0,1,262.26,120.55Z"/><path class="cls-8" d="M239.23,120.07c-.68-.66-.42-1.5-.42-2.27q0-23.77,0-47.57c0-.77-.26-1.61.4-2.28q.06,15.08.1,30.13C239.31,105.41,239.26,112.74,239.23,120.07Z"/><path class="cls-9" d="M123.18,113.84c-.65-.66-.4-1.5-.4-2.27q0-22.83,0-45.65c0-.77-.25-1.61.4-2.27Z"/><path class="cls-10" d="M320.28,118.16c-.7-.64-.44-1.48-.44-2.24q0-22.87,0-45.73c0-.77-.26-1.61.44-2.25,0,10.76.1,21.53.11,32.29C320.39,106.21,320.32,112.19,320.28,118.16Z"/><path class="cls-11" d="M578.74,117.22c-.52-.39-.49-1-.49-1.51v-22a1.52,1.52,0,0,1,.43-1.3,7.58,7.58,0,0,1,.38,3.27q0,9.39,0,18.79A5.94,5.94,0,0,1,578.74,117.22Z"/><path class="cls-12" d="M588.81,95.68l-.67-.06c-1.59-3.17-1.41-3.88,1.16-4.68a4.72,4.72,0,0,0,3.27-.08c.3-.47.64-1.12,1.27-.69s.33,1.46.39,2.21-.21,1.24-1.05,1.25-1.91,0-2.87,0c-1.32.09-1.21.71-.5,1.51C589.59,95.56,589.06,95.33,588.81,95.68Z"/><path class="cls-13" d="M284.77,120.07c-.56-.5-.42-1.17-.42-1.79v-27c0-.62-.14-1.29.43-1.78Q284.78,104.78,284.77,120.07Z"/><path class="cls-11" d="M376.84,117.2c-.57-.48-.43-1.15-.43-1.76q0-10.44,0-20.87c0-.61-.13-1.28.46-1.75C377.13,101,377.17,109.08,376.84,117.2Z"/><path class="cls-14" d="M207.1,120.55a125.94,125.94,0,0,1,0-22.31c0-.06.12-.1.18-.15Q207.17,109.31,207.1,120.55Z"/><path class="cls-14" d="M207.64,89a1.71,1.71,0,0,1-1-1.76c0-6.29,0-12.59,0-18.88a2.47,2.47,0,0,1,.35-.85c.46,6,.07,12.1.21,18.15,0,.94-.22,1.93.4,2.78C207.91,88.62,207.9,88.81,207.64,89Z"/><path class="cls-11" d="M207.64,89l0-.56h20c-.18,1.09-1,.52-1.51.52C220,89,213.81,89,207.64,89Z"/><path class="cls-15" d="M575.84,90.45c-.4.5-1,.45-1.53.45h-15.8a1.6,1.6,0,0,1-1.32-.4C563.41,90.23,569.63,90.33,575.84,90.45Z"/><path class="cls-15" d="M374,90.45c-.48.58-1.15.44-1.78.44q-7.53,0-15.08,0c-.62,0-1.29.15-1.8-.4Z"/><path class="cls-7" d="M392.2,80.93a16.49,16.49,0,0,1-8.11,0A17.11,17.11,0,0,1,392.2,80.93Z"/><path class="cls-16" d="M594.29,121.19c-.1,1-.65,1.47-1.38,1.47a1.32,1.32,0,0,1-1.44-1.48,1.29,1.29,0,0,1,1.47-1.19A1.36,1.36,0,0,1,594.29,121.19Z"/><path class="cls-14" d="M420,80.87a12.17,12.17,0,0,1-7.17,0A14.87,14.87,0,0,1,420,80.87Z"/><path class="cls-14" d="M376.87,78a8.77,8.77,0,0,1,0-6.2A11.17,11.17,0,0,1,376.87,78Z"/><path class="cls-17" d="M11.91,51.13h7.77c-2.87.25-5.76,1.09-8.6.09Z"/><path class="cls-8" d="M284.8,66.57a8.45,8.45,0,0,1-5.7,0Z"/><path class="cls-10" d="M475.64,62.18a7.74,7.74,0,0,1,0-5.72A18,18,0,0,1,475.64,62.18Z"/><path class="cls-18" d="M284.78,83.27c-.67-1-.3-2.12-.41-3.19,0-.28-.21-.92.48-.71.39.12.47.58.46,1C284.39,81.2,285.19,82.34,284.78,83.27Z"/><path class="cls-11" d="M318.37,66.57a7.08,7.08,0,0,1-5.24,0A17.05,17.05,0,0,1,318.37,66.57Z"/><path class="cls-19" d="M588.81,95.68c.22-.4.62-.44,1-.5l2.76,0C591.46,96.37,590,95.36,588.81,95.68Z"/><path class="cls-15" d="M592.57,90.86c-1.07,1-2.17.65-3.27.08Z"/><path class="cls-6" d="M568.31,111.37V99.54h.23v11.81Z"/><path class="cls-1" d="M3,61.73a10.34,10.34,0,0,1,9.52-8.19c1.59.3,3.19-.11,4.78,0,.84.07,1.73-.13,2.45.49.12,4.71.12,4.71,5,4.73,5.26,0,10.52,0,15.78.15,1.72,0,2.31-.53,2.15-2.16-.07-.71,0-1.43,0-2.15,0-1,.32-1.47,1.37-1.46q17.94,0,35.86,0c.19,0,.38.24.57.36a5.42,5.42,0,0,1-2.59.22H44.31a7.23,7.23,0,0,1,.92,0H79.42a1.92,1.92,0,0,1,1.15.23c.33,5.22.33,5.22,5.51,5.22,5,0,10-.12,15,0,2.17.08,2.86-.61,2.56-2.67a16.13,16.13,0,0,1,0-2.6c1.9-.93,3.89-.35,5.85-.39.45,0,.92.33,1.32-.13a10.28,10.28,0,0,1,9.57,8.18q0,27,0,54.08c-.53,4-4.21,7.25-9,8.16a4.47,4.47,0,0,1-2.78.44H15.23a4.47,4.47,0,0,1-2.78-.44l0,0c-.71-.68-1.71,0-2.45-.51A10.07,10.07,0,0,1,3,115.76Q2.86,88.75,3,61.73Z"/><path class="cls-1" d="M83.51,56.89c-.89-2.93-.43-6-1-9-1.35-7.29-3.39-14.27-8-20.24-7.72-10-18.61-9.81-26.05.47-4.46,6.16-6.62,13.18-7.68,20.6a51.55,51.55,0,0,0-.51,5.94c0,1.31-.41,1.84-1.79,1.81-4.87-.1-9.74-.11-14.61-.11-1.19,0-1.79-.36-1.7-1.66.92-13,4-25.28,11.71-36.09,5.22-7.36,11.82-13,20.75-15.26C65.51.64,74.87,4,82.9,11.24c9.48,8.59,14.32,19.74,16.82,32a67.15,67.15,0,0,1,1.46,13.5c-.24.42-.64.38-1,.38H84.4A1.4,1.4,0,0,1,83.51,56.89Z"/><path class="cls-20" d="M120.39,115.79c-.8-.7-.48-1.64-.48-2.47q0-24.57,0-49.14c0-.84-.32-1.77.47-2.47a5.84,5.84,0,0,1,.46,3v48A6.1,6.1,0,0,1,120.39,115.79Z"/><path class="cls-21" d="M3,61.73c.68.65.42,1.5.42,2.27q0,24.75,0,49.5c0,.76.26,1.61-.43,2.26A10.38,10.38,0,0,1,2.47,112q0-23.25,0-46.51A10,10,0,0,1,3,61.73Z"/><path class="cls-22" d="M111.15,124.34c.5.17,1.13-.19,1.6.46H11.05c.4-.68,1-.28,1.53-.44a4.49,4.49,0,0,1,2.12-.19q47.16,0,94.32,0A5.12,5.12,0,0,1,111.15,124.34Z"/><path class="cls-23" d="M12,126.37c.52-.68,1.28-.54,2-.54H110a5.51,5.51,0,0,1,.83.15,4.19,4.19,0,0,1-2.57.29q-46.61,0-93.22,0c-1,0-2.08,0-3.11.06Z"/><path class="cls-24" d="M111.15,124.34l-98.57,0a1.51,1.51,0,0,1-.13-.41h98.89C111.28,124.08,111.22,124.21,111.15,124.34Z"/><path class="cls-25" d="M80.57,54.05H43.71v-.47H80.48Z"/><path class="cls-26" d="M79.94,51.59H43.82v-.23H80Z"/><path class="cls-22" d="M83.51,56.89l17.67-.12a1,1,0,0,1-.93.61H83.68c-.06,0-.17-.06-.18-.1A1.79,1.79,0,0,1,83.51,56.89Z"/><path class="cls-25" d="M19.71,54.06c-2.4-.31-4.89.62-7.23-.52,2-.56,4.07-.28,6.11-.34C19.18,53.19,19.71,53.28,19.71,54.06Z"/><path class="cls-27" d="M110.81,53.53c-2.32,1.15-4.78.22-7.17.52,0-.79.52-.86,1.1-.85C106.77,53.26,108.81,53,110.81,53.53Z"/><path class="cls-28" d="M30.86,57.06h8.93v.23h-9Z"/><path class="cls-24" d="M10,123.46c.83.09,1.78-.38,2.45.51A3.32,3.32,0,0,1,10,123.46Z"/><path class="cls-29" d="M589.75,99.52h2.88c-.82,1-1.9.24-2.84.4,0,0-.12-.11-.12-.17S589.72,99.59,589.75,99.52Z"/><path class="cls-30" d="M590.61,106.58c.92,0,1.8,0,1.84,1,.06,1.12-.93,1.11-1.72,1.1s-1.81,0-1.78-1.07S590,106.66,590.61,106.58Z"/><path class="cls-28" d="M104.14,120.62a.71.71,0,0,1-.06.43,4.49,4.49,0,0,1-2.35.22q-40.31,0-80.61,0a4,4,0,0,1-2.33-.25l0,0c-.39-.49-.25-1.06-.25-1.61q0-27.78,0-55.55a2.46,2.46,0,0,1,.24-1.62h0A3,3,0,0,1,20.62,62h81.94a3.83,3.83,0,0,1,1.65.16.54.54,0,0,1,.31.09c.71.82.5,1.82.5,2.75q0,26.43,0,52.85a4.17,4.17,0,0,1-.45,2.77l-.22.06h-.22c-1-1.06-.72-2.4-.72-3.65q0-25.11,0-50.24c0-3.38,0-3.39-3.25-3.39H23c-3,0-3.06,0-3.06,3q0,25.13,0,50.25c0,3.23,0,3.25,3.4,3.25q38.47,0,76.95,0C101.57,119.9,103,119.58,104.14,120.62Z"/><path class="cls-31" d="M104.21,62.12,58,62.19H18.76c.67-.86,1.62-.5,2.45-.5q40.24,0,80.49,0C102.55,61.7,103.48,61.42,104.21,62.12Z"/><path class="cls-32" d="M103.44,122.41H19.37v-.23h84.16Z"/><path class="cls-31" d="M18.79,121l85.29,0c-.68.85-1.63.46-2.46.46q-40.19,0-80.39,0C20.41,121.51,19.45,121.88,18.79,121Z"/><path class="cls-33" d="M105,62.21c.76.49.54,1.27.54,2q0,27.58,0,55.18a11.5,11.5,0,0,1-.08,1.17.28.28,0,0,1-.17.12.63.63,0,0,1-.22-.07,2.59,2.59,0,0,1-.23-1.62q0-27.66,0-55.33A3.09,3.09,0,0,1,105,62.21Z"/><path class="cls-31" d="M18.75,62.21q0,29.4,0,58.78c-.81-.7-.46-1.64-.47-2.47q0-26.91,0-53.83C18.3,63.86,18,62.92,18.75,62.21Z"/><path class="cls-34" d="M105,62.21q0,29.19.07,58.36h-.47q0-29.17,0-58.37Z"/><path class="cls-31" d="M104.14,120.62l-81.48-.05c-3.45,0-3.45,0-3.45-3.48,0-17.22,0-34.45-.05-51.67,0-2.17.55-2.81,2.79-2.8,26.28.07,52.56,0,78.84.05,3.28,0,3.28,0,3.29,3.19q0,27.39,0,54.77Z"/><path class="cls-9" d="M102.64,119.13l-.46,0-.32-.34a3.06,3.06,0,0,1-.33-.87c-.36-5.64-.07-11.28-.12-16.92-.1-11,0-21.92,0-32.89a6,6,0,0,0-.26-2.81c-.88-.79-2-.51-3-.51-24.72,0-49.43-.09-74.15,0-.72,0-1.44,0-2.15-.09a2.76,2.76,0,0,1-.9-.27l-.36-.31c.68-.83,1.63-.5,2.46-.51q38.53,0,77.07,0c.84,0,1.78-.31,2.48.48a3.22,3.22,0,0,1,.22,1.86q0,25.65,0,51.29A3.25,3.25,0,0,1,102.64,119.13Z"/><path class="cls-35" d="M102.16,119.61c-.71.78-1.65.46-2.48.46q-38.28,0-76.55,0c-.84,0-1.77.32-2.48-.46.84-.83,1.93-.67,2.94-.67H99.2C100.23,118.94,101.3,118.83,102.16,119.61Z"/><path class="cls-36" d="M102.16,119.61H20.65v-.51l.37-.31a7.06,7.06,0,0,1,3.06-.33H98.7c1.17,0,2.42-.23,3.44.64l0,.07C102.17,119.32,102.16,119.46,102.16,119.61Z"/><path class="cls-37" d="M102.64,119.13v-55c.78.71.46,1.64.46,2.47q0,25,0,50.07C103.1,117.49,103.42,118.42,102.64,119.13Z"/><path class="cls-38" d="M20.65,119.1c-.76-.62-.47-1.48-.47-2.24q0-25.23,0-50.47c0-.76-.29-1.62.45-2.25h.09c.75.88.6,1.95.6,3q0,24.48,0,48.95c0,1,.17,2.09-.57,3Z"/><path class="cls-39" d="M102.1,64.58c0,11.24.08,22.48.09,33.72,0,6.78,0,13.55-.08,20.33-3.24.56-6.5.13-9.76.23a1.07,1.07,0,0,1-.64-.56,5.11,5.11,0,0,1,.08-3.71c.88-1.11,2.15-.81,3.31-.88a21.2,21.2,0,0,0,3.55-.16c-.18-.74-.91-.77-1.13-1.29a7.05,7.05,0,0,1-.06-4.31c0-.07.06-.16.12-.2,3.46-2.22,3.46-3,0-5a2.87,2.87,0,0,1-.06-2.57,1.48,1.48,0,0,1,.68-.63c1.68-.78,1.68-2.25,1.19-3.61s-1.84-1-3.35-.87c2,1.29,2.43,2.76,1.44,4.57a1.87,1.87,0,0,1-2.6-.19c-.94-1.17-2.32-1.59-3.44-2.41-1.56-.23-1.9,1.61-3.55,1.73.87.94,2.65.92,2,2.47-.51,1.28-1.76,1.09-2.84,1.3-2.41.46-3.65-1.72-5.57-2.32-.85-.75-.68-1.51,0-2.29,1.83-1.12,3.56-2.4,5.43-3.48a1,1,0,0,1,.44-.18,8.06,8.06,0,0,0,6.82-2.69c-1-.83-2.31-1.59-2.28-3.49a3.84,3.84,0,0,1,2.43-3.65,2.18,2.18,0,0,1,2.87-1.07,8.12,8.12,0,0,1,.94.69c.56.38,1.09.38,1.31-.33a.87.87,0,0,0-.78-1.2,6.67,6.67,0,0,0-3.26.15c-.91.82-1.86,1.45-3.15.85a1.89,1.89,0,0,1-.65-1.19c-.18-.59,0-1.73-1-1.43s-.74,1.18-.22,1.89c.47.49,1.43.45,1.49,1.38-1.29,2-3.09,1-4.76.86-.71-.41-.76-1.13-.86-1.83-.42-2.88-1.06-3.23-3.79-2.08-.49,1,0,1.4.8,1.86,1,.53,1.52,1.25.25,2.12a7.23,7.23,0,0,1-2.36.21c-1.79.05-2.63-.81-2.62-2.6,0-1.42,0-2.85,0-4.28A3.15,3.15,0,0,0,77.7,76a2.65,2.65,0,0,1-.4-.69c-.25-.69-.19-1.51-.8-2.07-1.17-.68-2.46-.28-3.69-.38-1.45-.12-2.47-.65-2.35-2.27s1.21-2,2.67-1.62c.45.17.76.59,1.19.79,2.32,1.06,3.61.25,3.68-2.3a10.28,10.28,0,0,1,.15-2.14,2.07,2.07,0,0,1,.38-.72c3.21-.63,3.21-.62,3.21,2.54,0,2.78,0,5.56,0,8.34,0,1.59.62,2.3,2.27,2.29q6.92-.06,13.83,0c1.67,0,2.26-.76,2.24-2.33,0-3.09,0-6.19,0-9.28C100,64.59,100.45,63.88,102.1,64.58Z"/><path class="cls-40" d="M102.1,64.58c-.91,0-1.54-.14-1.46,1.32.21,3.48,0,7,.11,10.48,0,1.49-.35,2.15-2,2.12q-7.87-.12-15.76,0c-1.65,0-2-.65-2-2.13.08-3.25-.12-6.52.08-9.77.15-2.43-.64-2.61-2.45-1.49-1.59,1-3.33.54-5,.46a12.68,12.68,0,0,0-5.65,0,19.53,19.53,0,0,1-4.95,0,18.86,18.86,0,0,0-4.5-.34c-1.41,0-2.33,0-3.25,1.71a12.94,12.94,0,0,1-3.54,3.87,3.62,3.62,0,0,1-.31-3.35c.38-.77,1.2-.93,2.22-1.46-1.22,0-1.55.79-2.1,1.19a1.61,1.61,0,0,1-2.2-.37c0-.9,1.06-.8,1.43-1.59a5.39,5.39,0,0,0-2.17.29,6.08,6.08,0,0,1-2.21,0c-4-.56-4-.56-4,3.36,0,2.22,0,4.44,0,6.66A3.52,3.52,0,0,1,41.8,78a.65.65,0,0,1-.75-.19c-1-2.61-.4-5.33-.49-8-.12-3.53-.08-3.58-3.62-3.59s-7.32,0-11,0c-1.93,0-2.77.7-2.68,2.65s.08,3.82,0,5.72.68,2.79,2.64,2.69c1.51-.09,3,0,4.54,0a4.3,4.3,0,0,1,2.53.52.6.6,0,0,1,.11.78c-3.32,1.16-6.73.6-10.09.37-1.4-.1-1.55-1.4-1.58-2.56-.05-2.85,0-5.7,0-8.55a8.92,8.92,0,0,0-.2-2.82.82.82,0,0,1-.06-.8c10.54,0,21.07-.1,31.6-.11q23.35,0,46.7,0C100.33,64.12,101.36,63.65,102.1,64.58Z"/><path class="cls-41" d="M21.16,64.21l0,.39c.64.93.39,2,.41,3,.29,15.72.32,31.44.23,47.16,0,1.1-.48,2.47,1.05,3.1,6.36.24,12.71.1,19.07.06,1.51,0,3,0,4.52,0,3.55,0,7.11,0,10.66,0,9.06-.06,18.12,0,27.18,0,2.58.31,5.28-.61,7.78.67h10a.93.93,0,0,1,0,.47l-81.39,0,0-54.9A1.09,1.09,0,0,1,21.16,64.21Z"/><path class="cls-1" d="M81.55,98l-.14,1.85c.35,1.19-.24,2.28-.36,3.42-.61,1.45-1.25,2.9-2,4.3-.69,1.07-1.86,1.76-2.33,3a2.81,2.81,0,0,1-.74,1,8.58,8.58,0,0,0-1.81,1c-.15.14-.31.27-.48.4a4.67,4.67,0,0,1-.51.36c-.83.51-1.65,1-2.52,1.47a11,11,0,0,1-2.49,1c-.9.17-1.74.54-2.62.79s-1.89.26-2.83.37a29.49,29.49,0,0,1-5.38-.72,23.71,23.71,0,0,1-2.55-1,11.56,11.56,0,0,1-1.44-.65c-.27-.13-.53-.28-.79-.42-.44-.23-.88-.43-1.31-.67-.26-.16-.5-.33-.74-.51a6.47,6.47,0,0,1-1.85-1.57,12.18,12.18,0,0,0-1.76-2.1,4.71,4.71,0,0,1-.58-.69c-.27-.42-.53-.84-.81-1.24a2.57,2.57,0,0,1-.27-.52,3.75,3.75,0,0,0-.5-1,3.16,3.16,0,0,1-.76-.87,6.12,6.12,0,0,0-.48-1.77,27.19,27.19,0,0,1-.84-3.22c0-.22,0-.45-.06-.68,0-.45,0-.91,0-1.36,0-.69-.19-1.37-.15-2.06a30.1,30.1,0,0,1,.6-4.82,3.85,3.85,0,0,1,.13-.66,2.59,2.59,0,0,1,.24-.6,3.78,3.78,0,0,0,.74-1.4c1.22-3.82,4.14-6.29,7-8.82A20.55,20.55,0,0,1,54,78.2a4.54,4.54,0,0,1,.61-.24c.84-.22,1.6-.67,2.43-.9.22-.06.44-.1.65-.14.78-.1,1.53-.35,2.32-.45s1.58-.12,2.38-.22,1.77.17,2.66.27a4.52,4.52,0,0,0,3-.1c.56.27.76.89,1.23,1.26a4.21,4.21,0,0,0,1.53.86A16.57,16.57,0,0,1,74,80.45c.68.49,1.4.92,2.09,1.4a2.43,2.43,0,0,1,.47.44c.72,1.3,1.69,2.44,2.52,3.68a11.43,11.43,0,0,1,1.48,2.94,21,21,0,0,0,.87,2.9c.08.22.14.45.2.68s.09.49.13.73C82,94.84,82.69,96.48,81.55,98Z"/><path class="cls-42" d="M76,111c.38-1.54,1.59-2.49,2.56-3.62,1.87,1.49,4.06,1,6.15.94,1.33,0,1.37-1.06,1.37-2s-.08-2.06-1.51-2.22-2.87.32-4.11-.67a11.46,11.46,0,0,1,.92-3.5c1.11.14,2.67-.65,2.79,1.49,0,.42,4.69.5,5,.07a1.49,1.49,0,0,0,.25-.88c0-.65-.52-.68-1-.72-.66,0-1.58.31-1.66-.81-.09-1.36,1-.89,1.7-1,.41,0,.94-.07.92-.52-.1-1.81,1.27-1.18,2.15-1.38.87.55,1,2,2.58,1.81.82-.09.53,1.21.52,1.94-1.91.92-2.49,2.33-1.58,4.28,1,.81,2.59,1.37,1.41,3.15-1.3.6-2.3,1.66-3.54,2.35a2.16,2.16,0,0,0-1,1.75c-.6,3.52-.88,3.73-4.37,3.52a3.59,3.59,0,0,1-1.38-.29c-1.19-.68-.49-2.24-1.38-3.16-1.5,2.85-1.5,2.85-2.84,3.74.55.77,2,.89,1.74,2.21a1,1,0,0,1-1.26.79,9.69,9.69,0,0,0-1.42-.1c-1.12-.12-2.63.5-3.1-1s-.84-3.35.72-4.6S76.4,111.44,76,111Z"/><path class="cls-43" d="M80.08,88.88l-1.43-2.76c-.11-.83.5-.87,1-.92,1-.09,1.9,0,2.85,0,.59,0,1.39.19,1.57-.66A1.11,1.11,0,0,0,83,83c-1.81.06-.76-1.61-1.45-2.19,1.06-2.25,3-.68,4.47-.89,1.16-.17.64,1.17.71,1.86.11,1,.1,1.91.13,2.86,1.15.52,2.36.23,3.52.22,1.43,0,2.1.49,2,1.94,0,.64,0,1.28,0,1.91-.07,1.14,0,2.09,1.57,2a.92.92,0,0,1,1.08,1c-.06.61-.63.88-1.25.86-.82,0-1.42.16-1.41,1.15a.64.64,0,0,1-.53.69,13.72,13.72,0,0,1-5-.18c-.35-.11-.36-.67-.3-1.07a1,1,0,0,1,.41-.56c2.44-1.25,2.58-1.61,1.71-4.52-1.88.13-3,1.67-4.55,2.41a2.31,2.31,0,0,1-2.4.25C81,90.26,80.67,89.44,80.08,88.88Z"/><path class="cls-44" d="M81.51,80.85c.66.73.59,2.07,2.12,2.12.78,0,.86,1,.77,1.76s-.72.86-1.38.94c-1.45.18-3-.48-4.37.45a16.4,16.4,0,0,1-2.56-3.61c-.15-1.69-1.54-2-2.77-2.52a1.72,1.72,0,0,1-.23-1.83,1.35,1.35,0,0,1,.56-.55,9.52,9.52,0,0,0,2.4-1.51,1.69,1.69,0,0,1,2.82,1.42,38.55,38.55,0,0,1,0,5.48c-.14,1.68.54,2.14,2,1.93,1-.15,2.06.26,3-.25.24-.63.14-1.26-.61-1.17C81,83.77,81.21,82.35,81.51,80.85Z"/><path class="cls-45" d="M97.85,112.42a9,9,0,0,0,1.14.17c.73,0,1.25.21,1.15,1.07s-.72.7-1.25.7c-2.28,0-4.56,0-6.84,0l-.25-.28a3.6,3.6,0,0,1,0-2.91c.47-.79,1.5-.53,2.09-1.12a5.32,5.32,0,0,0,.35-.61,6.08,6.08,0,0,1,.42-1.85,1.64,1.64,0,0,1,1.81-.84c.87.1,1.12.64,1.15,1.48C97.66,109.62,97.33,111,97.85,112.42Z"/><path class="cls-46" d="M78.62,65.58a15.2,15.2,0,0,1,.06,2.13c-.1,1,.59,2.51-.44,2.84a12,12,0,0,1-4.47,0c-.56,0-.33-.79-.43-1.22a.62.62,0,0,1,.11-.6c.41-.41,1-.32,1.59-.75-.44-.74-1.64-.51-1.92-1.39a1,1,0,0,1,.48-1.31C75.27,65.43,77,65,78.62,65.58Z"/><path class="cls-47" d="M92.05,114.34,92,118c-2.35.91-4.79.18-7.17.41a1.26,1.26,0,0,1-1.15-1.67c.19-.84,1-.92,1.66-1.06,1.31-.26,2.88.41,3.85-1.07a2,2,0,0,1,2.91-.23Z"/><path class="cls-48" d="M97.4,99.51c-.1-1.42,1.17-3.6-1.91-3.35-.47,0-.62-.39-.65-.82s.15-.87.58-.89a12.75,12.75,0,0,1,4.24.12c1.13.37.33,1.83.51,2.79.36,1.86-.28,2.87-2.33,2.62A.81.81,0,0,1,97.4,99.51Z"/><path class="cls-49" d="M97.4,99.51l.44.47.11,2.84a.51.51,0,0,1-.15.6c-1.42-.22-.59-1.85-1.51-2.39-1.14,1.76-1.05,2.78.56,3.74a2.35,2.35,0,0,1,1.34,2.28,1.72,1.72,0,0,1-.24.63l-.1,4.74c-1-1-.32-2.33-.48-3.5-.12-.82.23-1.74-1.21-1.75s-1.18.85-1.22,1.7c0,.58.31,1.28-.4,1.71a2.5,2.5,0,0,1-.06-3.42c.34-1.18.21-2-1.33-1.81-.41,0-1,.09-1-.58a3.16,3.16,0,0,0,1.74-3.11,2.31,2.31,0,0,1,.6-1.75c0-.69.67-1.88-.67-1.71-1.79.24-1.74-1.08-2.22-2,1,1.33,3.17,1.11,3.82,3C95.59,99.8,96.72,99.38,97.4,99.51Z"/><path class="cls-50" d="M86.91,92.82c-.11.73-.21,1.71.87,1.43,1.49-.38,3.74,1.48,4.47-1.46.15-.58,1.17-.22,1.78-.32a.77.77,0,0,0,.69-.83c0-.45-.27-.84-.71-.77-2.14.34-2-1-2-2.45,0-3,0-3-3.2-3.11-.67,0-1.65.57-2-.63,1.56-.48,3.49,1,4.77-.9a.45.45,0,0,1,.53-.17,3.33,3.33,0,0,0,2.36,1.17,2.11,2.11,0,0,1,.49.39c-2,.36-2.75,1.52-2.43,3.57.16,1,.19,1.69,1.42,1.66a1.2,1.2,0,0,1,1.39,1.26,1.15,1.15,0,0,1-1.24,1.18c-.89,0-1.46.24-1.65,1.24-.15.81-1,.68-1.57.68-1.35,0-2.69,0-4,0-2.72.38-3.23,0-2.9-2.09A2.37,2.37,0,0,1,86.91,92.82Z"/><path class="cls-51" d="M83.93,92.81c-.26,2.52,2,1.21,2.92,1.91a4,4,0,0,1-.16.89c-2.08,0-2.77,3-5.14,2.43-.11-1.73-.23-3.45-.34-5.18A1.87,1.87,0,0,1,83.93,92.81Z"/><path class="cls-52" d="M84,84.68c-1.5,1.28-3.23.56-4.86.47-.61,0-.41-.92-.42-1.45q0-3.11,0-6.21c0-.57,0-1.21-.75-1.21-.59,0-1.62-.33-1.7.37C76,78.81,74.45,77.87,73.37,78a2,2,0,0,1-.08-2.55,4,4,0,0,1,4.32.1,1.49,1.49,0,0,1,1.56,1.67c0,.86,0,1.73,0,2.59C79.17,84.69,79.17,84.69,84,84.68Z"/><path class="cls-53" d="M95,81.83c1.34-.06,2.67-.13,4-.17.57,0,1.18,0,1.15.81s.33,1.8-.22,2.52c-.4.54-1.17.31-1.78.22-.94-.13-.43-1-.76-1.51A2.07,2.07,0,0,0,96,83.48C94.74,83.48,94.42,82.93,95,81.83Z"/><path class="cls-54" d="M97.19,89.05c1.54-.14,3.37-.79,3,2-.11.86-.06,1.55-1.24,1.57s-1.59-.37-1.52-1.53a3.18,3.18,0,0,0-.21-2.1Z"/><path class="cls-55" d="M77.61,75.57H73.39c-.54-1.31-1.14-2.51-2.86-1.34a2.28,2.28,0,0,1-.76-1.51c0-1.14.18-2.28.22-3.42a2.52,2.52,0,0,1,.2-.66,1,1,0,0,1,.51-.42,6.59,6.59,0,0,1,2.33.31.78.78,0,0,1,.4.5l.06.2-.15.14c-1,0-2.28-.59-2.34,1.33s1.21,1.45,2.23,1.55c1.48.14,3.08-.78,4.41.51-.72.83-2,.18-2.79,1.12.68,1,2,.29,2.75,1.11Z"/><path class="cls-56" d="M89.65,83.3c-.47-.73-.14-1.54-.23-2.3-.12-1,.45-1.17,1.29-1.2s1.51.22,1.4,1.32c-.07.7,0,1.41,0,2.12A3.22,3.22,0,0,1,89.65,83.3Z"/><path class="cls-57" d="M77.6,75c-.8,0-1.59,0-2.39.07S74,74.7,74,73.8s.42-1.28,1.29-1.22l2.36.19C77.63,73.52,77.61,74.26,77.6,75Z"/><path class="cls-58" d="M99,118.11c-.86,0-1.58,0-1.55-1s.72-.88,1.36-.88,1.49-.05,1.43,1C100.18,118.08,99.57,118.15,99,118.11Z"/><path class="cls-26" d="M89.65,83.3l2.42-.06c1.17,0,2.53.26,2.92-1.41-.43,2.2,1.91.84,2.39,1.87-1,.19-2.58-.61-2.41,1.47l-.24,0-.23,0c-.54-.86-1.68-.74-2.31-1.44l-.6,0C91,83.56,90.15,84.06,89.65,83.3Z"/><path class="cls-59" d="M97.85,103.3c0-.16.07-.32.1-.48,1.85-.15,2.86.34,2.84,2.55s-1.21,2.39-2.84,2.31c0-.17-.07-.34-.11-.52C100.17,105.45,100.17,105.08,97.85,103.3Z"/><path class="cls-60" d="M97.25,89c-.15,0-.31,0-.46,0-.75-.13-1.91.48-2-.95,0-1.09.85-1,1.53-.92,1.58.07,1.24,1,.84,2Z"/><path class="cls-61" d="M84.43,118.13,92,118l.07.64H84.42a.29.29,0,0,1-.11-.33C84.35,118.19,84.39,118.13,84.43,118.13Z"/><path class="cls-9" d="M78.62,65.58H73.46a.25.25,0,0,1-.19-.36l.18-.13h5.19Z"/><path class="cls-39" d="M44.36,105.27l.72.53a.43.43,0,0,1-.15.67,3.69,3.69,0,0,1-3.15,0c-.35-.2-.62-.51-1-.73-3.55-.67-7.13-.15-10.69-.28-1.75-.07-3.5,0-5.25,0-1.53,0-2.15.65-2.13,2.15,0,3.41,0,6.82,0,10.23a1.75,1.75,0,0,1-.22.81c-1.94.13-1.4-1.32-1.4-2.31q0-21,0-41.95c0-3.26,0-6.52.05-9.77,1.11-.15.95.44.93,1.27-.09,3.57,0,7.13-.08,10.7,0,1.44.48,2,1.93,1.93,3-.09,6,0,9.05,0a4.09,4.09,0,0,1,1.06.6c1.59.85,2.46-.67,3.66-1.1s2.67.11,4,0V64.67c1.3.15,3.13-.67,4.82.45a3.07,3.07,0,0,1,.38.56c.12,3.06,3.06,3.48,4.75,5.07.76-.34.66-1,.59-1.64-.22-2,1.36-1.43,2.35-1.79,1.31-.49-.4-2.58,1-2.63,2.38-.08,4.86-.68,7.2.37a2.44,2.44,0,0,1,.39.52c.17,1.32.17,2.76,2,3.08a1.08,1.08,0,0,1,.39.61,1.24,1.24,0,0,1-.51,1.36c-3.85.55-4.36,1-5.76-2.65-1.13-.5-1.44.2-1.52,1.09s0,1.89-.05,2.84.06,2-.95,2.51a2.21,2.21,0,0,1-2.76-.7c-.31,0-.84-.82-.85.24,2.2,1.06,1.9,2.75,1.2,4.55L51.56,80a2.18,2.18,0,0,1-1.92.22c-1.26-1.35-.23-1.89.85-2.42.29-.23.57-.47.34-.9-1-.32-1.74-1.13-2.71-1.52-1.25.15-2.91-.75-3.59.93s.31,2.56,1.72,3.41a1.31,1.31,0,0,1-.19,2.45,3.25,3.25,0,0,0-1.94,2.19c-.37,1.37-1.38,1.61-2.62,1-.36-.32-.66-.68-1-1C38,82.77,38,82.67,39.67,81.26a.83.83,0,0,0,.4-.22c.22-.27,0-.38-.21-.42-.66-.11-1,.45-1.37.79-1.38,1.09-3.22,0-4.61,1A2.31,2.31,0,0,1,33,83.47c-2.7,1.18-2.53-1.35-3.36-2.57a4.51,4.51,0,0,0-3.46-.11c-.93,1.35-.73,2.21,1,2.28,1.41.06,2.85,0,3.88,1.2,1.17.65,1.62-.6,2.44-.92,2-.42,4.07-.69,5.8.91.72.29,1.55.35,2.09,1a1.48,1.48,0,0,1-.09,1.87,4.49,4.49,0,0,1-3,.6c-3.19,0-6.39,0-9.58,0-1.77,0-3.53.06-5-1.52-.64,1.35-.9,2.7,0,3.5s2.42.52,3.48-.43a2.42,2.42,0,0,1,3.05-.5,3.19,3.19,0,0,0,3,1.45c1.71,0,3.49-.45,5.11.49.74,1.54-.23,2-1.46,2.17-1.55.23-3.15-.13-4.67.23,1.78,1.12,3.8,0,5.61.65a2,2,0,0,1,.57.31c.41,1.34,1.62,1.48,2.71,1.81a1.36,1.36,0,0,1,.42.56,1.68,1.68,0,0,1-.38,1.72c-2.08.72-4.12,1-6-.61-.46-.4-1-.66-1.44-.13-1.78,2-3.27,1.24-4.72-.42-.3-.35-.82-.46-1.17-.78A3.53,3.53,0,0,0,24.34,95a1.13,1.13,0,0,0-1.05,1.1c0,.32,0,.7.3.84.58.28.8-.3,1.14-.58a2.23,2.23,0,0,1,3.21,0c1.2,3.29.62,4-3.56,4.73,1.43.31,2.94.31,4.25,1.11.68.42.79-.48,1-.95.81-1.69,4.72-2.55,6.14-1.35.68.57.57,1.2.17,1.9-.29.5-1.21.48-1,1.32a33,33,0,0,0,6.12.1C42.79,103.06,43.86,103.65,44.36,105.27Z"/><path class="cls-62" d="M90.85,65.34c2.56,0,5.11,0,7.67,0,1.25,0,1.67.36,1.64,1.63-.08,3.18-.07,6.37,0,9.56,0,1.11-.28,1.55-1.47,1.54q-7.91-.09-15.82,0c-1.16,0-1.51-.39-1.49-1.52.06-3.27.08-6.54,0-9.8,0-1.28.53-1.43,1.57-1.41C85.58,65.37,88.21,65.34,90.85,65.34Z"/><path class="cls-63" d="M33.11,78c-2.94,0-5.89,0-8.84,0-1.24,0-1.88-.15-1.83-1.65.12-3.17.1-6.36,0-9.53-.05-1.35.51-1.56,1.67-1.55,5.18.05,10.35.06,15.53,0,1.3,0,1.6.45,1.58,1.66-.08,3.66,0,7.31-.06,11-1.15.57-2.38.13-3.57.26-.65,0-.93-.39-1-1,0-.8.87-1.22.95-2,.22-1.82.05-3.65.09-5.47a1.73,1.73,0,0,0-2-2c-2.7,0-5.4,0-8.1,0-1.09,0-1.89.38-1.88,1.63,0,2-.3,4,.26,5.9.86,1.09,2.07.51,3.12.65,1.52.21,3.19-.49,4.56.73A1.17,1.17,0,0,1,33.11,78Z"/><path class="cls-64" d="M51.7,70.75c-.76-.11-2,.35-2.21-.27-.58-1.91-4.5-1.81-2.89-4.9.73-.54,1.56-.17,2.34-.26.63.22.91.56.42,1.18.63,1.22,1.58.54,2.44.41l-.06-.07A12.21,12.21,0,0,1,51.7,70.75Z"/><path class="cls-39" d="M68,65.16a6.09,6.09,0,0,1,5.44-.06v0c0,1.7-1.84,1.76-2.56,2.82a1.53,1.53,0,0,1-.31.52l-.11-.07-.13,0a1.94,1.94,0,0,1-1.7.63c-1.06,0-2.51.37-2.94-.82s1.16-1.1,1.81-1.63a1.54,1.54,0,0,0,.44-1C68,65.39,68,65.27,68,65.16Z"/><path class="cls-40" d="M38.37,64.94H25.56v-.21H38.37Z"/><path class="cls-65" d="M51.8,66.91c.08-.73-.21-1.71,1.05-1.67.72,0,1.71-.31,1.75.94,0,1.09-.82,1-1.5.93a9,9,0,0,1-1.35-.27Z"/><path class="cls-39" d="M49.36,66.5l-.37-1c-.32-.12-.33-.27,0-.45a2.08,2.08,0,0,1,2.41-.21c.1.05,0,.57,0,.86C51.05,66.82,50.08,66.39,49.36,66.5Z"/><path class="cls-9" d="M62.83,65.53v-.47l5.17.1,0-.08c.46.75.63,1.45-.26,2a3.76,3.76,0,0,0-2.54-.91A3,3,0,0,1,62.83,65.53Z"/><path class="cls-66" d="M33.11,78a1.13,1.13,0,0,1,.48-1c.48-.11.7.18.87.54a2.07,2.07,0,0,1-.24,1.87.5.5,0,0,1-.7,0l-.5-1Z"/><path class="cls-40" d="M37.39,78l3.78-.08.58,0c-1.36,1-2.89.3-4.33.47-.14-.09-.18-.18-.15-.28S37.35,78,37.39,78Z"/><path class="cls-9" d="M49,65a.58.58,0,0,1,0,.45l-2.39.1a.61.61,0,0,1,0-.46Z"/><path class="cls-67" d="M84.43,118.13v.5H57.09a2.64,2.64,0,0,1-.43-.67c-.18-.82-.25-1.62.56-2.18l5.48.81c2.33,1.44,3.45,1.39,4.63-.24a1.18,1.18,0,0,1,.79-1l2.4-.89c1.7,1.13,1.7,1.13,2.83-1.61l.15.08c2.18-.74,2.44-.6,2.52,1.42.14,3.46.14,3.46,3.73,3.56a2.29,2.29,0,0,1,.93.17c1.12-1,1.2-1.67-.51-1.83-.7-.07-1.5.13-1.5-1s.82-1,1.51-.94c1,.06,1.19-.42,1.22-1.28,0-1-.63-2.57,1.49-2.39s.81,1.8,1.16,2.72c.08.19,0,.46,0,.69.78,1,1.84.31,2.76.47s1.71-.22,2.51.26c.43,1.06,0,1.43-1.06,1.4s-1.88,0-2.83,0C83.73,116.2,83.72,117,84.43,118.13Z"/><path class="cls-61" d="M22.56,118.63c0-.15,0-.3,0-.45l.32-.31c1.35-.64,2.8-.41,4.21-.42,3.56,0,7.13,0,10.69,0a4,4,0,0,0,2.73-.54c1.13-1.56.41-3.35.59-5,.14-1.31.5-2.37,2-2.41s3.16-.51,3.4,1.78c-.14,1.27-1.37,1.12-2.1,1.6a4.51,4.51,0,0,0-.4.47,2.42,2.42,0,0,0-.06,2,4.34,4.34,0,0,0,.35.49c.86.57,2.18.56,2.41,1.91a3,3,0,0,1,.07.32.79.79,0,0,1-.22.6Z"/><path class="cls-61" d="M46.54,118.64l.15-.57a18.14,18.14,0,0,1,10.35,0l.05.58Z"/><path class="cls-68" d="M69.78,106.63c-4.62,0-8.81,0-13,0-1.09,0-1.26-.4-.72-1.28.37-.61.71-1.24,1.06-1.87a17.23,17.23,0,0,0,2-3.76c.48-1.84-1.78-1.74-2.58-2.8a6,6,0,0,1,.26-8A7.81,7.81,0,0,1,68,89a5.72,5.72,0,0,1-.93,8.76c-1.39,1-1.43,1.67-.57,3C67.64,102.52,68.56,104.44,69.78,106.63Z"/><path class="cls-69" d="M33.57,103.36c-.79-1.15-.49-1.71.91-1.67.76,0,1.5,0,1.42-1.06s-.87-.72-1.45-.76-1.44.08-2.14,0c-1.61-.23-2.14.43-2,2,.07.6.38,1.57-.78,1.6-.71,0-1.6.36-1.78-.93s-1.35-.67-2.1-.78a15.26,15.26,0,0,0-2.14,0c-.63,0-1.07-.2-1.09-.93s.48-.89,1.08-.89H24c3.62-.18,3.62-.18,3.91-3.9l-.06.07c1,.36,2.52-.28,2.81,1.68a1.45,1.45,0,0,0,2.47-.58,1.43,1.43,0,0,1,2.32-.68c.47,2.57,2.39,1.33,3.7,1.56a13.73,13.73,0,0,0,2.13,0l.22.27a1.27,1.27,0,0,1-.17,1.31,8,8,0,0,1-1.66,1.2c1.27,0,1.88-2.19,3.45-.92l.89,3.4A50.79,50.79,0,0,1,33.57,103.36Z"/><path class="cls-70" d="M49.51,79.79l2.05.18c-2.8,2.58-5.64,5.12-7,8.85-1,.43-.75-.91-1.39-1-.53-.26-1.16-.2-1.68-.5l-.21-.21,0-2.14-.06.08c1.61.51,2.91.57,2.57-1.75-.17-1.22.26-1.82,1.57-1.65.62.09,1.09-.13,1.11-.88s-.46-.86-1.08-.91c-3.19-.26-1.12-2.66-1.53-4-.49-1.66,1-1.4,2-1.39s2.06.1,3.09.15c.69,1.39-.43,1.77-1.28,2.29.13.82,1.12.51,1.42,1.09S48.76,79.32,49.51,79.79Z"/><path class="cls-71" d="M80.49,103.39c1,0,1.92,0,2.87,0,3.28,0,4.45,1.66,3.47,4.8-.23.72-.69.77-1.27.76-1.84,0-3.68-.07-5.51,0-1.3.06-1.42-.69-1.46-1.63C79.22,106.06,79.86,104.72,80.49,103.39Z"/><path class="cls-72" d="M57,118.05l-10.35,0,0,0c-.14-1.87-2.28-1.23-3-2.38l0,.05a2.86,2.86,0,0,1,0-2.82l0,.06c.39-1.12,1.34-.73,2.12-.79a1.32,1.32,0,0,1,.86.52c.24.36.39.78.65,1.13A16.39,16.39,0,0,1,50,115.55c1.6.06,3.25.47,4.69-.65l2.51.88Z"/><path class="cls-73" d="M62.53,76.77A5.67,5.67,0,0,1,60,77c-.64-.47-.7-1.32-1.24-1.85a2.55,2.55,0,0,1-1.48-2.88c.09-.85,0-1.73,0-2.59,0-2.52,0-2.52,2.65-2.25a1,1,0,0,1,.1.21c.3,2.93.3,2.93,3.38,3,2.28,0,2.33.12,1.61,2.2C62.89,73.24,63.21,75.33,62.53,76.77Z"/><path class="cls-74" d="M70.52,74.16c.34-.82.54-1.7,1.84-1.47s.71,1.28.89,2c.07.3.1.61.14.91,0,.81,0,1.63,0,2.44l0-.07a1.93,1.93,0,0,1-2.14.38c-.69-.26-.72-1.11-1.33-1.44a3.47,3.47,0,0,0-2.09-.08c-.69,1.51-1.64.42-2.5.24-1.16-1.24-.94-2.63-.41-4,.62-1,1.58-.9,2.54-.77a2,2,0,0,1,.65.29A2.62,2.62,0,0,0,70.52,74.16Z"/><path class="cls-75" d="M46.58,112.9l-.53-.43q-.24-.15-.18-.33c0-.13.08-.19.13-.19.43-2.07-1-1.85-2.29-1.9s-2,.26-2,1.82c0,1.94.56,3.95-.42,5.82a2.12,2.12,0,0,1-.67-1.69c.07-3.5-.54-7,.38-10.5a.5.5,0,0,1,.76-.2l0,.91a4.5,4.5,0,0,0,3.25,0,1.76,1.76,0,0,1,.07-.4,1.21,1.21,0,0,1,.52,1.37c-.56.82-1.9.23-2.41,1.3,1.66,1,1.67-.8,2.39-1.33.73.14.85.76,1.05,1.31.36,1.64.72,3.27,2.41,4.14C48.35,113.75,47.49,113.51,46.58,112.9Z"/><path class="cls-76" d="M43.65,90.91l-.8,5.29a1.17,1.17,0,0,1-1.61-.07l0,.06c-.65-1.14-2-1.22-2.93-2l0,.06a1.22,1.22,0,0,1-.22-1.43c1.1-.7,2.54-.9,3.2-2.23A1.92,1.92,0,0,1,43.65,90.91Z"/><path class="cls-77" d="M80.68,118.11a13.55,13.55,0,0,1-1.41.17c-4.09,0-3.67.15-3.52-3.37.08-1.86-.75-2.16-2.25-2l.43-.59c.59-.45,1.54-.29,1.88-1.14A.25.25,0,0,0,76,111a1.61,1.61,0,0,1,1.31-.4c.64,0,1.32,0,1.43.84s-.3,1.21-1.21,1.33c-2.93.36-1,2.59-1.33,3.9-.43,1.54,1,1.17,1.87,1.24Z"/><path class="cls-78" d="M59.85,67.55c-1.66-.53-2.63-.18-2.33,1.81a4.24,4.24,0,0,1,0,1.18c-.26,2,0,3.7,2.4,4.12-1.33.48-1.71,1.79-2.43,2.8l-.22.07-.24,0c-.66-.44-.26-1.56-1.19-1.89-.93.7-.25,2-1,2.72l-.47.17a1,1,0,0,1,0-.24c.29-2-.1-3.67-2.42-4.2.69-.62,1.79-.55,2.34-1.4.69.41.47,1.89,1.92,1.48s.66-1.54.82-2.33a7.47,7.47,0,0,0,0-2.36c-.35-2.4.78-3,2.88-2.45C60.19,67.21,60.18,67.4,59.85,67.55Z"/><path class="cls-79" d="M65.2,72.71c.06,1.44.11,2.89.16,4.34a6.62,6.62,0,0,1-2.83-.28,17.64,17.64,0,0,0,0-2.3c-.23-1.72.5-2.24,2.09-1.82A.42.42,0,0,1,65.2,72.71Z"/><path class="cls-80" d="M83.93,92.81l-2.72,0a.58.58,0,0,1-.08-.44c-.26-.58,2.3-.35.4-1.41a.56.56,0,0,1,0-.61c.83-.06,1.77.41,2.43-.49,1-.26,1.9-.23,2.46.82a1.35,1.35,0,0,1-.49.46c.29,0,.35-.34.6-.41,1.47.9,2.12.5,2.06-1.22a3.15,3.15,0,0,1,.56-2.44c1.12,1.6.65,3.43.38,5.06-.2,1.24-1.71.51-2.64.64Z"/><path class="cls-81" d="M67.6,116.23c.61.59.74,1.49,0,1.68a9,9,0,0,1-4.58-.06c-.47-.13-.3-.8-.27-1.26.94-.61,2-.15,3-.4A2.26,2.26,0,0,1,67.6,116.23Z"/><path class="cls-82" d="M54.84,78.34c0-.78,0-1.57,0-2.35s0-1.38,1.05-1.39S57.1,75,57,75.87c0,.54,0,1.09,0,1.64Z"/><path class="cls-83" d="M73.35,112.88a10.76,10.76,0,0,1,0,1.39c-.08.82.45,1.9-1.14,2s-1.66-.71-1.73-1.79Z"/><path class="cls-84" d="M43.65,90.91H41.37a4,4,0,0,1-.62.39,3,3,0,0,1-1.8,0,3.06,3.06,0,0,1-.61-.4c-2.08,0-4.16-.07-6.23.06-1.55.09-2-.61-1.89-2,2.64,1,5.37.84,8.11.61,1,0,2.08.17,3.12.16a3.54,3.54,0,0,1,2.33.57Z"/><path class="cls-10" d="M55.68,107.3H69.43v.19H55.68Z"/><path class="cls-85" d="M57.49,77.46c-.19-1.8-.17-3.41,2.43-2.8L60,77Z"/><path class="cls-86" d="M54.71,114.9c0,1-.3,1.48-1.37,1.41-1.34-.1-2.68-.12-4-.16-.28-1.18.61-1.29,1.37-1.42a17.59,17.59,0,0,0,2.78-.41Z"/><path class="cls-87" d="M43.14,99.94c-.64.21-1.71-.51-1.85.79-.17,1.57-1.33,1-2.15,1-.58,0-.78-.47-.74-1,.11-1.46,1.26-.74,2-.93.3-.08.59-.19.88-.29a1.31,1.31,0,0,1,1.84,0A.89.89,0,0,1,43.14,99.94Z"/><path class="cls-88" d="M33.57,103.36a79.37,79.37,0,0,1,10.46,0,2.72,2.72,0,0,1,.33,1.93c-.68-1.61-2-1.63-3.53-1.64C38.41,103.61,36,104,33.57,103.36Z"/><path class="cls-89" d="M53.47,114.32c-.16,1.41-1.26.83-2,1s-1.85-.52-2.12.85c-.1-1.74-1.82-1.12-2.64-1.81,1.42-.52,2.53-1.84,4.24-1.61l.42.53c-.14,1.61.82.81,1.48.67Z"/><path class="cls-90" d="M50.92,112.73c-.5.16-1.37-.12-1.47.44-.35,1.91-1.8.92-2.77,1.17,0-.48-.07-1-.1-1.44.8-.07,1.66.24,2.38-.35a.93.93,0,0,1-.28-.68.56.56,0,0,1,.48-.52C49.45,112.19,50.39,112.19,50.92,112.73Z"/><path class="cls-91" d="M73.57,79.83c2.3-.47,2.84.7,2.52,2.68l-.37-.28c-.34-.84-.77-1.56-1.87-1.37l-3.36-2c0-.48.24-.67.69-.67C72.61,77.82,73.11,78.8,73.57,79.83Z"/><path class="cls-92" d="M67.86,76.81c.62-1.13,1.67-.52,2.54-.65.56,1.35.7,2.41-1.35,1.93C68.23,78.05,68,77.47,67.86,76.81Z"/><path class="cls-93" d="M49.16,111.35,49,112c-2.44.3-2.55.13-1.94-3A8.27,8.27,0,0,1,49.16,111.35Z"/><path class="cls-94" d="M81.58,90.85c.32,0,.64,0,1,.05.59.06,1.42-.21,1.32.84-.07.83-.78.62-1.29.66s-1,0-1.43,0c0-.16-.09-.32-.14-.48C80.82,91.38,80.65,90.82,81.58,90.85Z"/><path class="cls-95" d="M52.82,113.93c-.48,1.53-1.64.81-2.56.73-.33,0-.4-.47-.31-.79.2-.75.89-.47,1.39-.61Z"/><path class="cls-96" d="M43.78,90.34a5.87,5.87,0,0,1-2.57.08A1.26,1.26,0,0,1,41.07,89a1.38,1.38,0,0,1,.6-.44,2.09,2.09,0,0,1,2.15.4,1.39,1.39,0,0,1,.08,1.11A1.34,1.34,0,0,0,43.78,90.34Z"/><path class="cls-97" d="M41.24,96.13l1.6.07A2.63,2.63,0,0,1,43,98.05a1.18,1.18,0,0,1-1.77,0l.07,0Z"/><path class="cls-98" d="M81.58,90.85c-.47.22-.49.67-.59,1.09a7.34,7.34,0,0,1-.91-3.06c1.34-.31,1.42.59,1.47,1.52A.58.58,0,0,0,81.58,90.85Z"/><path class="cls-99" d="M47.06,108.93c.07,1.37-.78,3.34,1.94,3l0,.59c-2.59-.1-2.59-.1-2.33-4.1Z"/><path class="cls-100" d="M41.23,98.06H43c0,.48.07,1,.1,1.46H41.26Z"/><path class="cls-101" d="M73.85,80.86c1.9-1.28,1.86.08,1.88,1.37C74.85,82.12,74.46,81.33,73.85,80.86Z"/><path class="cls-102" d="M69.05,78.09c1.35,0,1.91-.58,1.35-1.93,1,.31.54,1.1.58,1.73.26.34.18.5-.25.49l-.24.53C69.78,79,69.41,78.57,69.05,78.09Z"/><path class="cls-103" d="M43.9,90.1l-.16-1.24a.93.93,0,0,1,0-1.57c.57.35-.07,1.36.84,1.53A1.24,1.24,0,0,1,43.9,90.1Z"/><path class="cls-104" d="M75.81,111.23c.29,1.89-1,1.1-1.88,1.14A2.2,2.2,0,0,1,75.81,111.23Z"/><path class="cls-105" d="M67.6,116.23l-1.9,0a3.67,3.67,0,0,1,2.42-.81C68,115.66,67.77,115.94,67.6,116.23Z"/><path class="cls-106" d="M89.27,114.84c-1.74-.36-3.69.79-5.27-.73a15.36,15.36,0,0,0,1.64.22c3.64.1,3.67.09,3.69-3.53,0-1.14,0-2.13,1.56-1.91.39.06,1,0,1-.39.11-2,1.49-1.35,2.58-1.34l.06,3.42h0c-.72.5-1.74-.28-2.4.53l0,3.26C91.18,114.57,90.11,114,89.27,114.84Z"/><path class="cls-59" d="M94.47,99.91a20.16,20.16,0,0,0,0,2.58c.24,1.87-.49,2.63-2.36,2.28a24.62,24.62,0,0,0-.11-2.58C91.73,100.2,92.47,99.41,94.47,99.91Z"/><path class="cls-107" d="M86.34,90.89c-.66-.62-1.84,0-2.36-1a21,21,0,0,1,4.26-2.85c.24-.11.62,0,.93.06A18.14,18.14,0,0,1,89.23,90c-.12.82.69,2-.74,2.42s-1.44-1-2.15-1.5Z"/><path class="cls-108" d="M70.73,78.38l.25-.49,2.44.06.15,1.88A2.91,2.91,0,0,0,70.73,78.38Z"/><path class="cls-49" d="M92.14,111.11c.59-1.12,1.57-.53,2.4-.53C93.85,111.24,92.87,110.61,92.14,111.11Z"/><path class="cls-109" d="M73.39,67h1.2c.72,0,1.5-.12,1.52,1s-.73,1-1.48,1c-.4,0-.8,0-1.2,0V68.9a1.34,1.34,0,0,1-.28-1.65Z"/><path class="cls-110" d="M70.49,67.93c-.79-1,.07-1.39.67-1.34,1.27.09,1.66-.82,2.28-1.52,0,.17,0,.35,0,.52,0,.47,0,.93-.07,1.4l0,0A5.13,5.13,0,0,1,70.49,67.93Z"/><path class="cls-111" d="M97.85,103.3c1.33.15,2.49.13,2.37,2.22s-1.34,1.47-2.38,1.64c-.23-1-.15-2.32-1.88-2-.65.13-1-.2-1-.93,0-1.11,0-2.22,0-3.33,0-.9.51-1,1.22-1s1.15.13,1.23,1S96.83,102.71,97.85,103.3Z"/><path class="cls-112" d="M92.19,83.73c1,.14,2.66-.84,2.31,1.44C93.4,85.21,91.9,85.89,92.19,83.73Z"/><path class="cls-48" d="M65.22,70.32V68.84a15.66,15.66,0,0,1,5.29,0c-.23,1.25.67,2.68-.59,3.78-.59.68-1.21.55-1.84.08l0,0C67.53,71.51,65.89,71.49,65.22,70.32Z"/><path class="cls-110" d="M70.52,68.84H65.23l0,.07c-.5-.7-.64-1.45.07-2a1.72,1.72,0,0,1,2.31.11c1-.45.37-1.24.39-1.89.78,1.76.78,1.76-2,3.29h4.3Z"/><path class="cls-113" d="M70.49,67.93c.56-1.56,2-.55,2.92-1,0,.65,0,1.31,0,2-.94-.23-2,.34-2.85-.49Z"/><path class="cls-114" d="M68.09,72.7l1.84-.08c.62.35.5,1,.59,1.54C69.18,74.56,67.63,75.31,68.09,72.7Z"/><path class="cls-115" d="M38.45,89.9c-2.34,1.21-4.81.37-7.22.47-.76,0-.18-1.26-1-1.37-1.09,0-2-.5-2.75,1.23-.55,1.3-2.75.45-4.2.44-1.26,0-.72-1.17-.79-1.87a12.17,12.17,0,0,1,0-1.91c0-.67-.28-1.57.87-1.59.74,0,1.62-.29,1.71,1s1.19.78,1.88.79c4.79,0,9.58,0,14.37,0L41.24,87a1.38,1.38,0,0,1,0,2l.06-.06C40.54,89.84,39.35,89.44,38.45,89.9Z"/><path class="cls-116" d="M33.23,81.89c.8-1,1.9-.33,2.85-.51s1.75.38,2.37-.56c.86-.17,1.64-.17,1.89.91-.47.32-1.47-.2-1.49.75s.87.66,1.43.73c.4.05.79.09.91.57-.69.64-1.81.56-2.36,1.42-.49-1.39-1.52-1.67-2.87-1.5a22.88,22.88,0,0,1-2.87,0c-.63.73-1.81.55-2.36,1.42-.55-1.83-2.07-1.4-3.37-1.41-2.75,0-3.28-1.08-1.89-3.81A2.18,2.18,0,0,1,26,81.17a1.53,1.53,0,0,0,1.77,1.43c1,0,1.66-.32,1.82-1.38A2.28,2.28,0,0,1,30.18,80a.74.74,0,0,1,.48.94c-.39,2.12.76,2.55,2.52,2.34,1-1,2.39-.22,3.42-.84a12.44,12.44,0,0,1-2.8-.14A1.93,1.93,0,0,1,33.23,81.89Z"/><path class="cls-117" d="M30.18,80c-.4,1.2,1.2,3.38-1.81,3.31s-3.11,0-2.9-3.35Z"/><path class="cls-118" d="M41.73,105.3l-.62,0c-1,.79-2.11.63-3.21.64-4,0-8,.07-12,0-2,0-2.73.72-2.63,2.67.1,2.14,0,4.3,0,6.45a4.34,4.34,0,0,1-.63,3l-.14.12c-1-2.61-.38-5.31-.43-8-.12-5.45,0-5.45,5.48-5.45,4,0,8,0,11.94,0C40.29,104.79,41.15,104.5,41.73,105.3Z"/><path class="cls-119" d="M27.93,96c-1.06.57-3-.5-3.19,1.84,0,.4-1.5.5-1.92,0a2.49,2.49,0,0,1-.16-3.06c1-1,2.69-.31,4.08-.43s.92,1,1.13,1.67Z"/><path class="cls-46" d="M67.64,67c-1.23.11-2.83-.23-2.38,1.93-2.75,0-2.75,0-2.43-3.38,1.24,0,2.47,0,3.71,0S67.79,66.1,67.64,67Z"/><path class="cls-42" d="M38.32,92.81l.09,1.47c-2.18,0-4.36,0-6.54.07-1.15,0-1.65-.35-1.13-1.52A24.7,24.7,0,0,1,38.32,92.81Z"/><path class="cls-120" d="M65.22,70.32c1.06.72,3.51-.25,2.92,2.43l-2.94,0-.59-.06c1-1.07,1.1-1.78-.67-1.81-.31,0-.62,0-.93,0-3.17,0-3.17,0-3.16-3.29,0-.18,0-.36,0-.54C60,70.77,62.62,70.54,65.22,70.32Z"/><path class="cls-121" d="M38.32,92.81l-7.58,0c2-.85,4-.27,6-.36,1.14-.06,1.87-.21,1.59-1.56L39,91c.57.71,1.12.68,1.68,0l.69-.08C41.61,93.57,39.48,92.41,38.32,92.81Z"/><path class="cls-9" d="M46.56,76.55c.32-1.25,2.93.33,2.42-2,.23,1.67,2.06,1,2.82,2-.43.4-1.49.62-.43,1.46-.71.49-2.4,0-1.86,1.77-.94-.31-.44-1.11-.58-1.68C48.47,77.08,47.2,77.29,46.56,76.55Z"/><path class="cls-122" d="M38.36,94.22c1.13.43,3.31-.7,2.93,2C39.76,96.35,38.12,96.69,38.36,94.22Z"/><path class="cls-122" d="M45.32,70.72c.68,0,1.3,0,1.28,1,0,1.09-.8,1-1.52,1s-1.3-.11-1.3-1C43.78,70.54,44.64,70.77,45.32,70.72Z"/><path class="cls-123" d="M40.34,81.73c-.6-.36-1.48-.15-1.89-.91,0-1.45,1.1-.94,1.84-1,.47,0,1,.07,1,.69S41.23,81.76,40.34,81.73Z"/><path class="cls-124" d="M38.83,85.2c-.36-2.36,1.34-1.32,2.36-1.42l.09,1.27.06-.08C40.55,85.55,39.68,85.27,38.83,85.2Z"/><path class="cls-125" d="M51.37,78c-.55-.45-1.94.28-1.81-.82.15-1.35,1.45-.48,2.24-.64C51.85,77.1,52.08,77.7,51.37,78Z"/><path class="cls-126" d="M54.27,72.67c.32,2.31-1.33,1.33-2.34,1.4C51.6,71.77,53.27,72.77,54.27,72.67Z"/><path class="cls-127" d="M30.73,85.14c-.24-2.18,1.39-1.25,2.36-1.42C33.36,85.93,31.86,85.24,30.73,85.14Z"/><path class="cls-72" d="M37.9,81.92c.21,1.21.21,1.27-.69,1.31-1.34,0-2.68,0-4,0l0-1.35a1,1,0,0,0,.38.08A5.93,5.93,0,0,0,37.9,81.92Z"/><path class="cls-128" d="M37.39,78a3.11,3.11,0,0,0,0,.43c-.85,2.11-2.45,1.25-3.9,1l.72-.16c.75-.46,1.7-.71,1.87-1.79.17-.3.37-.54.77-.43Z"/><path class="cls-118" d="M45,106.2a2.91,2.91,0,0,1-3.25,0Z"/><path class="cls-129" d="M90.89,76.22c-1.84,0-3.67,0-5.51,0-1,0-1.41-.37-1.38-1.41,0-2.15.06-4.3,0-6.45,0-1.1.44-1.35,1.42-1.34,3.59,0,7.19,0,10.78,0,1.06,0,1.39.39,1.36,1.41-.06,2.15-.07,4.3,0,6.45,0,1.09-.39,1.38-1.4,1.35C94.4,76.18,92.65,76.22,90.89,76.22Z"/><path class="cls-129" d="M25.08,76.05c0-2.54,0-5.08-.08-7.61,0-1,.3-1.42,1.35-1.41,3.65,0,7.31,0,11,0,1,0,1.25.39,1.22,1.28-.09,2.61-.13,5.22-.18,7.83C33.92,77,29.5,76.14,25.08,76.05Z"/><path class="cls-130" d="M25.08,76.05l13.27.1c-.26.68-1.26.17-1.47.92l-.48.48a1.7,1.7,0,0,1-2.32,0L33.59,77c-1.91-1-4-.19-5.92-.47C26.8,76.43,25.78,77,25.08,76.05Z"/><path class="cls-131" d="M34.08,77.51l2.32,0c.51,2.11-1,1.73-2.16,1.74A2.55,2.55,0,0,1,34.08,77.51Z"/><path class="cls-62" d="M22.68,118.06c-.46-3.89-.07-7.79-.22-11.69-.05-1.3.86-1.09,1.64-1.08,5.67,0,11.34,0,17,.06l.15,12.34c-1.81.75-3.7.25-5.55.3C31.37,118.09,27,118.05,22.68,118.06Z"/><path class="cls-118" d="M43.71,115.71c.9.92,3.36-.12,3,2.38C46.24,116.64,44.11,117.25,43.71,115.71Z"/><path class="cls-118" d="M43.76,112.94l0,2.82A1.88,1.88,0,0,1,43.76,112.94Z"/><path class="cls-118" d="M46,112l0,.52c-.75.28-1.66-.13-2.32.53C43.87,111.32,45.19,112.18,46,112Z"/><path class="cls-132" d="M41.23,89V87c.83.09,1.71-.23,2.5.25v1.57Z"/><path class="cls-133" d="M46.56,76.55c1.19-.09,2.73-.72,2.37,1.56C48,77.79,46.15,78.89,46.56,76.55Z"/><path class="cls-126" d="M84.05,106.12c0,.89-.51,1-1.23,1s-1.51.07-1.47-1c0-.93.72-.87,1.37-.87S84,105.18,84.05,106.12Z"/><path class="cls-134" d="M45.58,107.14c-.08,1.23.44,2.83-1.85,2.52-.9-.12-1.64,0-1.65-1.33s.74-1.32,1.65-1.28c.63,0,1.25.08,1.87.12Z"/><path class="cls-125" d="M86.34,90.89c.17.82.09,1.46-1,1.38-.39,0-.93,0-.88-.54.12-1.3,1.29-.45,1.88-.84Z"/><path class="cls-135" d="M38.45,89.9c.37-2,1.9-.62,2.84-1l-.08,1.47C40.24,90.53,39.22,90.88,38.45,89.9Z"/><path d="M40.68,91c.25.76.13,1.23-.81,1.24S38.79,91.77,39,91Z"/><path class="cls-115" d="M37.9,81.92c-1.41,1.41-2.84,1.33-4.29,0Z"/><path class="cls-62" d="M91,69a2.57,2.57,0,0,1,.48,0c1,.2,2.64-.62,3.07.46.5,1.23.22,2.81.16,4.23,0,.75-.71.7-1.28.7a25.15,25.15,0,0,0-3.58,0c-2.51.38-3.33-.56-3.08-3.06C87,68.51,86.21,69,91,69Z"/><path class="cls-62" d="M31.67,74.34h-.48c-3.21,0-4.29-1.52-3.38-4.62.26-.89.89-.75,1.5-.76,1.67,0,3.35.06,5,0,1.19-.06,1.44.42,1.48,1.52C35.94,74.35,36,74.34,31.67,74.34Z"/><path class="cls-129" d="M31.91,107.11c1.76,0,3.52,0,5.27,0,1,0,1.39.34,1.36,1.38-.07,2.15-.06,4.3,0,6.45,0,1-.37,1.37-1.4,1.36-3.59,0-7.18,0-10.77,0-1,0-1.4-.36-1.38-1.4.06-2.15.07-4.3,0-6.44,0-1.1.45-1.37,1.42-1.35C28.24,107.13,30.08,107.1,31.91,107.11Z"/><path class="cls-69" d="M31.8,109a4.33,4.33,0,0,1,.72,0c1,.2,2.62-.63,3.06.47s.2,2.81.14,4.23c0,.77-.75.66-1.29.66-1.68,0-3.35-.07-5,0-1.29.07-1.59-.42-1.61-1.65C27.73,109,27.67,109,31.8,109Z"/></g></g></svg>